<svg id="_Layer_" data-name="&lt;Layer&gt;" xmlns="http://www.w3.org/2000/svg" viewBox="0 0 4000 4000"><defs><style>.cls-1{fill:none;}</style></defs><path d="M673.49,3664a167,167,0,0,1-118.72-49.24h0L385.29,3445.26a168,168,0,0,1-.17-237.59l.17-.17L1946,1646.89a168,168,0,0,1,237.58-.18l.17.18,169.36,169.35a168.37,168.37,0,0,1,0,237.76L792.36,3614.73A166.92,166.92,0,0,1,673.49,3664Zm-28.36-139.71a40.25,40.25,0,0,0,56.76,0L2262.74,1963.48a40,40,0,0,0,.19-56.57c-.06-.06-.12-.13-.19-.19L2093.3,1737.28a40,40,0,0,0-56.56-.19l-.19.19L475.77,3298.14a40.23,40.23,0,0,0,0,56.76Z"/><path d="M2223.22,1840.8a64,64,0,0,1-45.28-109.24l859.35-859.3a64,64,0,0,1,92.8,88.16c-.76.79-1.53,1.56-2.32,2.32l-859.31,859.34A64,64,0,0,1,2223.22,1840.8Z"/><path d="M2115.62,2265a64.08,64.08,0,0,1-45.28-18.72l-316.59-316.6a64,64,0,0,1,90.52-90.52l316.59,316.6A64,64,0,0,1,2115.62,2265Z"/><path d="M938,3445.26a64,64,0,0,1-45.24-18.72l-316.59-316.6a64,64,0,1,1,90.56-90.56h0L983.36,3336A64,64,0,0,1,938,3445.26Z"/><path d="M1246.16,2819.19A64,64,0,0,1,1200.92,2710l244.75-244.68a64,64,0,1,1,92.8,88.16c-.75.8-1.52,1.57-2.32,2.32l-244.75,244.8A64,64,0,0,1,1246.16,2819.19Z"/><path d="M3264.33,799.7a64,64,0,0,1-45.24-109.28l172-172a64,64,0,1,1,90.52,90.52l-172,172A63.76,63.76,0,0,1,3264.33,799.7Z"/><path d="M3600,1022.73H3356.72a64,64,0,0,1,0-128H3600a64,64,0,1,1,0,128Z"/><path d="M3436.36,1417.81a63.71,63.71,0,0,1-45.24-18.76l-172-172a64,64,0,1,1,89.19-91.8c.45.43.89.88,1.33,1.32l172,172a64,64,0,0,1-45.28,109.24Z"/><path d="M2818.25,799.7A63.71,63.71,0,0,1,2773,780.94l-172-172a64,64,0,1,1,89.15-91.84c.45.43.89.88,1.33,1.32l172,172a64,64,0,0,1-45.24,109.28Z"/><path d="M3041.29,707.3a64,64,0,0,1-64-64V400a64,64,0,0,1,128,0V643.3A64,64,0,0,1,3041.29,707.3Z"/><rect class="cls-1" width="4000" height="4000"/></svg>