<svg id="Layer_1" data-name="Layer 1" xmlns="http://www.w3.org/2000/svg" xmlns:xlink="http://www.w3.org/1999/xlink" viewBox="0 0 1000 1000"><defs><style>.cls-1{fill:#63f;}.cls-2{fill:url(#linear-gradient);}.cls-3{fill:url(#linear-gradient-2);}.cls-4{fill:url(#linear-gradient-3);}.cls-5{fill:url(#linear-gradient-4);}.cls-10,.cls-11,.cls-12,.cls-13,.cls-14,.cls-15,.cls-16,.cls-6,.cls-7,.cls-8,.cls-9{fill:none;stroke-miterlimit:10;stroke-width:5px;}.cls-6{stroke:url(#linear-gradient-5);}.cls-7{stroke:url(#linear-gradient-6);}.cls-8{stroke:url(#linear-gradient-7);}.cls-9{stroke:url(#linear-gradient-8);}.cls-10{stroke:url(#linear-gradient-9);}.cls-11{stroke:url(#linear-gradient-10);}.cls-12{stroke:url(#linear-gradient-11);}.cls-13{stroke:url(#linear-gradient-12);}.cls-14{stroke:url(#linear-gradient-13);}.cls-15{stroke:url(#linear-gradient-14);}.cls-16{stroke:url(#linear-gradient-15);}</style><linearGradient id="linear-gradient" x1="518.84" y1="5.77" x2="236.57" y2="980.91" gradientUnits="userSpaceOnUse"><stop offset="0" stop-color="#3f84eb"/><stop offset="0.49" stop-color="#63f"/><stop offset="1" stop-color="#4f00c9"/></linearGradient><linearGradient id="linear-gradient-2" x1="21.21" y1="759.26" x2="406.36" y2="759.26" xlink:href="#linear-gradient"/><linearGradient id="linear-gradient-3" x1="852.5" y1="102.82" x2="569.4" y2="1080.82" xlink:href="#linear-gradient"/><linearGradient id="linear-gradient-4" x1="396.56" y1="-26.47" x2="114.32" y2="948.53" xlink:href="#linear-gradient"/><linearGradient id="linear-gradient-5" x1="273.03" y1="529.91" x2="364.92" y2="438.03" gradientUnits="userSpaceOnUse"><stop offset="0.16" stop-color="#5711db"/><stop offset="0.4" stop-color="#f0e9fc"/><stop offset="0.43" stop-color="#d7c6f6"/><stop offset="0.48" stop-color="#af8dee"/><stop offset="0.52" stop-color="#9264e7"/><stop offset="0.55" stop-color="#814be3"/><stop offset="0.57" stop-color="#7a42e2"/><stop offset="0.76" stop-color="#ae8cee"/><stop offset="0.84" stop-color="#5711db"/></linearGradient><linearGradient id="linear-gradient-6" x1="506.63" y1="550.99" x2="597.64" y2="459.98" xlink:href="#linear-gradient-5"/><linearGradient id="linear-gradient-7" x1="413.33" y1="555.46" x2="502.89" y2="465.9" xlink:href="#linear-gradient-5"/><linearGradient id="linear-gradient-8" x1="620.72" y1="555.7" x2="709.99" y2="466.42" xlink:href="#linear-gradient-5"/><linearGradient id="linear-gradient-9" x1="724.88" y1="570.08" x2="813.82" y2="481.14" xlink:href="#linear-gradient-5"/><linearGradient id="linear-gradient-10" x1="886.67" y1="530.66" x2="972.99" y2="444.35" xlink:href="#linear-gradient-5"/><linearGradient id="linear-gradient-11" x1="816.13" y1="530.63" x2="873.33" y2="473.43" xlink:href="#linear-gradient-5"/><linearGradient id="linear-gradient-12" x1="22.31" y1="532.56" x2="105.37" y2="449.51" xlink:href="#linear-gradient-5"/><linearGradient id="linear-gradient-13" x1="108.53" y1="536.54" x2="166.36" y2="478.71" xlink:href="#linear-gradient-5"/><linearGradient id="linear-gradient-14" x1="233.88" y1="548.95" x2="284.07" y2="498.76" xlink:href="#linear-gradient-5"/><linearGradient id="linear-gradient-15" x1="172.09" y1="508.85" x2="218.63" y2="462.31" xlink:href="#linear-gradient-5"/></defs><path class="cls-1" d="M383.36,972.05a2.18,2.18,0,0,1-1.58-2.64c11.18-44.51,21.41-88.59,33.5-132.15,22.23-80.17,45.72-160,68.31-240,2.13-7.55,5.17-10.54,13.13-10.53q235.29.27,470.58.16a38.39,38.39,0,0,1,4.54.36,2.18,2.18,0,0,1,1.9,2.46C941.74,813.18,695.11,1049.27,383.36,972.05Z"/><path class="cls-2" d="M854.85,170.48a2.18,2.18,0,0,1-1.31,3.6l-71.77,10.59c-178.59,26.39-357.46,51.24-534,89.54-68.61,14.89-136.68,31.94-205,59.81a2.16,2.16,0,0,1-2.84-2.79C99.05,181.74,202.21,82.05,353.83,35.31,544.85-23.59,736.05,38.46,854.85,170.48Z"/><path class="cls-3" d="M21.22,596.11a2.18,2.18,0,0,1,3.3-2.05c19.78,12,38.24,23.53,57.14,34.29a100,100,0,0,0,26.15,10.71c16.59,3.9,28.67-8.41,25-25.16-1.64-7.49-4.87-14.64-7.93-22.77a2.17,2.17,0,0,1,2-2.93H404.2a2.17,2.17,0,0,1,2.06,2.83q-33.88,105.5-67.49,210.16l-6.22-.32c-2.79-13.18-5.56-26.37-8.45-39.53-.72-3.31-1.51-6.83-3.24-9.67a58.26,58.26,0,0,0-6.56-8.08,2.16,2.16,0,0,0-3.13-.11c-2.67,2.67-5.86,5.21-6.62,8.33-5.66,23.58-11.67,47.17-15.4,71.09-5,32.26-8.07,64.84-12.08,97.26a64.12,64.12,0,0,1-1.93,8.54,2.16,2.16,0,0,1-2.78,1.51C166.47,893.54,31.92,714.8,21.22,596.11Z"/><path class="cls-4" d="M542.59,425.87a2.16,2.16,0,0,1-2-2.9c4.86-13.58,9.45-26.94,14.54-40.1,8.63-22.33,17.76-44.46,26.42-66.78,2.44-6.27,5.8-9.09,13.07-10,87.12-10.74,174.18-22,261.25-33.14q27.67-3.56,55.3-7.59c8.39-1.23,14,.61,18.2,9.06,23.46,46.79,40.8,95.51,49.44,148.92a2.18,2.18,0,0,1-2.15,2.52Z"/><path class="cls-5" d="M490.6,313.93a2.19,2.19,0,0,1,2.47,2.64c-1.39,6.06-2.1,9.79-3.24,13.4-9.21,29.35-18.63,58.63-27.74,88-1.92,6.16-4.58,9.25-11.87,9.24q-187.39-.36-374.78-.21a29,29,0,0,1-3.93-.37,2.16,2.16,0,0,1-1.77-1.47h0a2.14,2.14,0,0,1,1.06-2.58c15.39-8,30.44-16.85,46.32-23.78,60.94-26.57,125.15-42.68,190.12-55C367,332.42,427.41,324,490.6,313.93Z"/><path class="cls-6" d="M295.34,497.91h15a3,3,0,0,1,3,2.77c.29,4,.53,7.95,1,11.85,2.05,16.44,12.33,27.35,27.57,29.47,17.86,2.48,32.06-4.2,38.2-18,6.93-15.55,4.26-36.62-8-44.61-7.57-4.93-17.76-7.45-26.85-7.64-38.6-.81-77.23-.35-115.85-.35H219a2.18,2.18,0,0,1-2.18-2.17V452.42a1.24,1.24,0,0,1,.77-1.14,7.55,7.55,0,0,1,2.67-.88c43.76-.06,87.55-1,131.29.21,41.9,1.15,65.57,41.89,48.53,81.14C390,555,367.56,566.12,338.3,562.48c-23.57-2.93-40.59-20-44.51-45.09-.79-5-1-10.2-1.42-16.28A3,3,0,0,1,295.34,497.91Z"/><path class="cls-7" d="M519.52,559.12V451.87a3,3,0,0,1,3.22-3c20.32,1.54,40.6,1.42,59.94,5.75,18.88,4.22,29,27.31,28.12,54.08-1.18,35-18.82,52.91-52.72,53.33-11.53.14-23.07,0-35.57,0A3,3,0,0,1,519.52,559.12Zm21-21.14a2.16,2.16,0,0,0,2.23,2.16c15.1-.61,30.21,3.7,40-11.95,7.91-12.6,7.51-36.16-1.17-46.58-10.72-12.87-24.85-10.23-39-9.58a2.16,2.16,0,0,0-2.08,2.16Z"/><path class="cls-8" d="M506.16,556.88a3,3,0,0,1-2.08,4.45c-17.24,3.07-18.18,1.78-26.24-14.29-1-2-1.92-4.09-2.93-6.11-9.28-18.46-9.67-19.22-29.89-17.42a3,3,0,0,0-2.71,3v31.79a3,3,0,0,1-3,3H423.9a3,3,0,0,1-3-3V507.48a3,3,0,0,1,3-3c11.53.05,22.62.32,33.68-.16,5.72-.24,12.8-.4,16.7-3.77,4.31-3.72,8.13-11.33,7.61-16.79-.45-4.72-6.71-11.58-11.39-12.59-10.64-2.28-21.89-1.62-32.89-2l-1.27,0a16,16,0,0,1-15.55-16v-1.7a2.16,2.16,0,0,1,2.28-2.15c19.68,1,39.72-.21,58.53,4.22,23.73,5.59,28.69,40.81,10,59.55-1.53,1.54-3.23,2.91-5.05,4.41a3,3,0,0,0-.68,3.76Z"/><path class="cls-9" d="M692,521c7,12.31,13.73,24,20.54,35.87a3,3,0,0,1-2.09,4.43c-17.23,3-17.82,1.85-26.19-14.34-1.21-2.34-2.46-4.67-3.66-7-9.42-18.52-9.83-19.26-29.9-16.11a3,3,0,0,0-2.52,2.95v31.38a3,3,0,0,1-3,3H631a3,3,0,0,1-3-3V507.47a3,3,0,0,1,3-3c10.29,0,20.9.05,31.51,0,18-.11,26.74-6.17,26.73-18.4,0-11.88-7.89-16.79-26.37-16.47-2.58.05-5.15-.11-7.73-.12H643.85a16,16,0,0,1-16.05-16.05h0a2.16,2.16,0,0,1,2.15-2.16c17.08-.07,34.26-.89,51.31.32,12.94.92,22.53,8.55,26.24,22.44,4.11,15.39.28,28.5-10.38,39.68a27.94,27.94,0,0,1-4.27,3.31A3.05,3.05,0,0,0,692,521Z"/><path class="cls-10" d="M822.15,557.33a2.86,2.86,0,0,1-2.15,3.81c-19,3.58-19.89,2.35-26.44-16.79-7.3-21.32-14.73-42.6-22.82-65.91a2.16,2.16,0,0,0-4.1,0C759,501.82,752.05,522.91,745.22,544c-5.93,18.35-6.22,19.47-24.4,17.52a3,3,0,0,1-2.54-3.93c1.51-4.57,3-9,4.49-13.42,9.91-28.61,20.33-57.05,29.57-85.9,4-12.41,12.86-6.77,19.95-8,6.61-1.17,10.25,1.15,12.87,8.48,11.35,31.69,23.6,63,35.48,94.53Z"/><path class="cls-11" d="M884.75,454.21a3,3,0,0,1,3-3.89,36.87,36.87,0,0,0,7-.17c7.56-1.21,11,2,13.16,9.56,5.88,20.63,12.33,41.09,20.18,61.8a3,3,0,0,0,5.63-.14c3.19-9.95,6.39-19.91,9.5-29.89,2.36-7.58,4.39-15.27,6.72-22.86,5.78-18.81,6.15-19.91,25.06-17.84a3,3,0,0,1,2.51,4c-6.63,18.91-13.16,37.57-19.72,56.22-5.27,15-10.21,30.11-16.18,44.78-1.21,3-6.39,5.94-9.71,5.91-5.1-.05-13.72-1.43-14.73-4.44C905.82,523.49,895.57,489.35,884.75,454.21Z"/><path class="cls-12" d="M865.65,520.37c3.44-11.06,6.92-22.26,10.65-34.22a3,3,0,0,1,5.63-.22c4.7,11.77,8.25,22.48,2.35,35.29-4.85,10.54-6.93,22.42-11.2,33.3-1.26,3.22-5.73,7.1-8.76,7.13-5.8.06-13.77,4.4-17-5.13-11.56-33.65-23.07-67.31-34.87-101.78a3,3,0,0,1,2.82-3.95h17.18a3,3,0,0,1,2.81,2q11.25,33.76,22.52,67.63Z"/><path class="cls-13" d="M70.77,561.63H56.15a3,3,0,0,1-3-3V472.43a3,3,0,0,0-3-3H24.78a3.93,3.93,0,0,1-3.93-3.93v-7.27a7.21,7.21,0,0,1,7.2-7.21h74.09a3,3,0,0,1,3,3v11.45a3,3,0,0,1-3,3H76.73a3,3,0,0,0-3,3v87.22A3,3,0,0,1,70.77,561.63Z"/><path class="cls-14" d="M119.58,450.87h14.18a3,3,0,0,1,3,3c0,19.57-.05,38.62,0,57.67.06,21,3.13,25.75,21.83,30.8a3,3,0,0,1,2.21,2.88V558.9a3,3,0,0,1-2.73,3c-21.37,1.85-39.59-11.46-41-32.84-1.68-24.63-.5-49.46-.41-75.2A3,3,0,0,1,119.58,450.87Z"/><path class="cls-15" d="M269,488.42v69.9a3,3,0,0,1-3,3H251a3,3,0,0,1-3-3V532.42c0-11.4.78-22.87-.21-34.17-1-11.63,3.66-15,13.79-13.31,1.43.24,2.88.36,4.62.51A3,3,0,0,1,269,488.42Z"/><rect class="cls-16" x="185.6" y="450.6" width="19.53" height="69.97" rx="2.98"/></svg>