<?xml version="1.0" encoding="iso-8859-1"?>
<!-- Uploaded to: SVG Repo, www.svgrepo.com, Generator: SVG Repo Mixer Tools -->
<!DOCTYPE svg PUBLIC "-//W3C//DTD SVG 1.1//EN" "http://www.w3.org/Graphics/SVG/1.1/DTD/svg11.dtd">
<svg fill="#000000" version="1.1" id="Capa_1" xmlns="http://www.w3.org/2000/svg" xmlns:xlink="http://www.w3.org/1999/xlink" 
	 width="800px" height="800px" viewBox="0 0 410.055 410.055"
	 xml:space="preserve">
<g>
	<g>
		<g>
			<path d="M397.555,0.001H70.024c-6.903,0-12.5,5.597-12.5,12.5v238.977H12.5c-6.903,0-12.5,5.597-12.5,12.5v133.576
				c0,6.902,5.597,12.5,12.5,12.5h133.576c6.903,0,12.5-5.598,12.5-12.5v-45.022h238.979c6.902,0,12.5-5.599,12.5-12.5V12.501
				C410.055,5.597,404.457,0.001,397.555,0.001z M92.524,317.53v-31.054h31.053v31.054H92.524L92.524,317.53z M70.024,352.53h53.553
				v22.522H35v-88.576h22.523v53.554C57.524,346.933,63.12,352.53,70.024,352.53z M146.076,251.478H92.523V35.001h282.53V317.53
				H158.576v-53.554C158.576,257.073,152.98,251.478,146.076,251.478z"/>
			<path d="M284.316,133.716c0.737,0.74,1.741,1.154,2.786,1.154c1.046,0,2.048-0.414,2.787-1.154l26.718-26.717l8.395,19.455
				c0.652,1.51,2.172,2.457,3.813,2.375c1.643-0.081,3.062-1.174,3.561-2.74l20.313-63.77c0.446-1.404,0.071-2.94-0.972-3.982
				c-1.041-1.042-2.576-1.415-3.981-0.969l-63.769,20.311c-1.567,0.499-2.66,1.918-2.74,3.562c-0.082,1.642,0.865,3.162,2.375,3.812
				l19.455,8.395l-26.719,26.718c-1.537,1.539-1.537,4.034,0,5.573L284.316,133.716z"/>
		</g>
	</g>
</g>
</svg>